<svg
    xmlns="http://www.w3.org/2000/svg"
    width="104"
    height="104"
    viewBox="0 0 104 104"
>
    <g
        fill="#ffffff"
        fill-rule="evenodd"
        stroke="#ffffff"
        stroke-linecap="round"
        stroke-linejoin="round"
        stroke-width="10"
        transform="translate(5.571 5.571)"
    >
        <path
            d="M0,78.5714286 C0,78.5714286 14.2857143,64.2857143 46.4285714,64.2857143 C78.5714286,64.2857143 92.8571429,78.5714286 92.8571429,78.5714286"
        />
        <line x1="46.429" x2="46.429" y1="64.286" y2="92.857" />
        <line x1="14.286" x2="39.286" y1="92.857" y2="64.5" />
        <line x1="78.571" x2="53.571" y1="92.857" y2="64.5" />
        <path
            d="M21.7142857,50 C21.6054386,48.8120118 21.6054386,47.6165596 21.7142857,46.4285718 C21.7142859,32.6214528 32.9071671,21.4285718 46.7142857,21.4285718 C60.5214043,21.4285718 71.7142855,32.6214528 71.7142857,46.4285718 C71.8231328,47.6165596 71.8231328,48.8120118 71.7142857,50"
        />
        <line x2="7.143" y1="46.429" y2="46.429" />
        <line x1="14.286" x2="17.857" y1="14.286" y2="17.857" />
        <line x1="46.429" x2="46.429" y2="7.143" />
        <line x1="78.571" x2="75" y1="14.286" y2="17.857" />
        <line x1="92.857" x2="85.714" y1="46.429" y2="46.429" />
    </g>
</svg>
