<svg
    xmlns="http://www.w3.org/2000/svg"
    fill="none"
    viewBox="0 0 24 24"
    id="Allergy-Fill--Streamline-Sharp-Fill-Material"
    height="24"
    width="24"
>
    <desc>Allergy Fill Streamline Icon: https://streamlinehq.com</desc>
    <path
        fill="#ffffff"
        d="M19.2001 22.35005c-0.25 0 -0.475 -0.0625 -0.675 -0.1875 -0.2 -0.125 -0.35 -0.30415 -0.45 -0.5375 -2.08335 -0.28335 -3.90835 -1.15415 -5.475 -2.6125 -1.56665 -1.45835 -2.675 -3.32915 -3.325 -5.6125 -1.71665 0.7 -3.09165 1.82085 -4.125 3.3625 -1.033335 1.54165 -1.59167 3.2875 -1.675 5.2375h-1.5c0.066665 -2.28335 0.725 -4.32915 1.975 -6.1375s2.91665 -3.1125 5 -3.9125c-0.35 -1.93335 -0.35415 -3.6875 -0.0125 -5.2625 0.34165 -1.575 0.9875 -2.8375 1.9375 -3.7875v-0.1c0 -0.35 0.12085 -0.645835 0.3625 -0.8875 0.24165 -0.24167 0.5375 -0.3625 0.8875 -0.3625s0.64585 0.12083 0.8875 0.3625c0.24165 0.241665 0.3625 0.5375 0.3625 0.8875s-0.12085 0.64583 -0.3625 0.8875c-0.24165 0.241665 -0.5375 0.3625 -0.8875 0.3625h-0.15c-0.05 0 -0.1 -0.008335 -0.15 -0.025 -0.58335 0.68333 -0.99585 1.375 -1.2375 2.075 -0.24165 0.7 -0.37085 1.56665 -0.3875 2.6 0.53335 -0.7 1.25835 -1.225 2.175 -1.575 0.91665 -0.35 2 -0.525 3.25 -0.525 0.23335 0 0.45835 0.00415 0.675 0.0125 0.21665 0.00835 0.39165 0.02085 0.525 0.0375 0.11665 -0.13335 0.25415 -0.23335 0.4125 -0.3 0.15835 -0.06665 0.32915 -0.1 0.5125 -0.1 0.35 0 0.64585 0.12085 0.8875 0.3625 0.24165 0.24165 0.3625 0.5375 0.3625 0.8875s-0.12085 0.64585 -0.3625 0.8875c-0.24165 0.24165 -0.5375 0.3625 -0.8875 0.3625 -0.21665 0 -0.42085 -0.05415 -0.6125 -0.1625 -0.19165 -0.10835 -0.34585 -0.25415 -0.4625 -0.4375 -0.28335 -0.03335 -0.50415 -0.05 -0.6625 -0.05h-0.5125c-1.45 0 -2.57915 0.28335 -3.3875 0.85 -0.80835 0.56665 -1.25415 1.39165 -1.3375 2.475 0.58335 -0.11665 1.19165 -0.18335 1.825 -0.2 0.63335 -0.01665 1.33335 0.01665 2.1 0.1 0.11665 -0.18335 0.26665 -0.325 0.45 -0.425 0.18335 -0.1 0.38335 -0.15 0.6 -0.15 0.35 0 0.64585 0.12085 0.8875 0.3625 0.24165 0.24165 0.3625 0.5375 0.3625 0.8875s-0.12085 0.64585 -0.3625 0.8875c-0.24165 0.24165 -0.5375 0.3625 -0.8875 0.3625 -0.2 0 -0.37915 -0.04165 -0.5375 -0.125 -0.15835 -0.08335 -0.30415 -0.2 -0.4375 -0.35 -0.66665 -0.08335 -1.35 -0.10835 -2.05 -0.075 -0.7 0.03335 -1.31665 0.10835 -1.85 0.225 0.21665 0.8 0.67915 1.39165 1.3875 1.775 0.70835 0.38335 1.6875 0.575 2.9375 0.575 0.45 0 0.95835 -0.02915 1.525 -0.0875 0.56665 -0.05835 1.16665 -0.14585 1.8 -0.2625 0.08335 -0.25 0.23335 -0.45 0.45 -0.6 0.21665 -0.15 0.45835 -0.225 0.725 -0.225 0.35 0 0.64585 0.12085 0.8875 0.3625 0.24165 0.24165 0.3625 0.5375 0.3625 0.8875s-0.12085 0.64585 -0.3625 0.8875c-0.24165 0.24165 -0.5375 0.3625 -0.8875 0.3625 -0.13335 0 -0.25835 -0.01665 -0.375 -0.05 -0.11665 -0.03335 -0.225 -0.08335 -0.325 -0.15 -0.75 0.13335 -1.44165 0.22915 -2.075 0.2875 -0.63335 0.05835 -1.20835 0.0875 -1.725 0.0875 -0.56665 0 -1.1 -0.0375 -1.6 -0.1125 -0.5 -0.075 -0.95835 -0.19585 -1.375 -0.3625 0.75 1.13335 1.65415 2.02915 2.7125 2.6875s2.2125 1.04585 3.4625 1.1625c0.11665 -0.08335 0.24165 -0.15415 0.375 -0.2125 0.13335 -0.05835 0.275 -0.0875 0.425 -0.0875 0.35 0 0.64585 0.12085 0.8875 0.3625 0.24165 0.24165 0.3625 0.5375 0.3625 0.8875s-0.12085 0.64585 -0.3625 0.8875c-0.24165 0.24165 -0.5375 0.3625 -0.8875 0.3625Z"
        stroke-width="0.5"
    ></path>
</svg>
