<svg
    xmlns="http://www.w3.org/2000/svg"
    fill="none"
    viewBox="0 0 24 24"
    id="Grass-Fill--Streamline-Sharp-Fill-Material"
    height="24"
    width="24"
>
    <desc>Grass Fill Streamline Icon: https://streamlinehq.com</desc>
    <path
        fill="#ffffff"
        d="M2 20v-1.5h6c-0.33335 -1.51665 -1.0625 -2.84585 -2.1875 -3.9875C4.6875 13.37085 3.416665 12.61665 2 12.25c0.333335 -0.08335 0.6625 -0.14585 0.9875 -0.1875C3.3125 12.02085 3.65 12 4 12c2.23335 0 4.125 0.775 5.675 2.325C11.225 15.875 12 17.76665 12 20H2Zm11.5 0c0 -0.7 -0.06665 -1.3125 -0.2 -1.8375 -0.13335 -0.525 -0.3 -1.04585 -0.5 -1.5625 0.66665 -1.46665 1.66665 -2.6 3 -3.4 1.33335 -0.8 2.73335 -1.2 4.2 -1.2 0.35 0 0.6875 0.02085 1.0125 0.0625 0.325 0.04165 0.65415 0.10415 0.9875 0.1875 -1.41665 0.36665 -2.7 1.12915 -3.85 2.2875S16.28335 17.01665 16 18.5h6v1.5H13.5Zm-1.45 -4.825c-0.15 -1.26665 -0.04165 -2.45 0.325 -3.55 0.36665 -1.1 0.90415 -2.05835 1.6125 -2.875 0.70835 -0.81665 1.5625 -1.46665 2.5625 -1.95 1 -0.48335 2.05835 -0.74165 3.175 -0.775 -0.93335 0.58335 -1.8125 1.37915 -2.6375 2.3875 -0.825 1.00835 -1.34585 2.0875 -1.5625 3.2375 -0.73335 0.35 -1.4 0.8375 -2 1.4625 -0.6 0.625 -1.09165 1.3125 -1.475 2.0625Zm-1.525 -1.9c-0.26665 -0.25 -0.55835 -0.5 -0.875 -0.75s-0.58335 -0.44165 -0.8 -0.575c0.05 -0.2 0.0875 -0.42085 0.1125 -0.6625 0.025 -0.24165 0.0375 -0.4375 0.0375 -0.5875 0 -1.26665 -0.2 -2.46665 -0.6 -3.6 -0.4 -1.13335 -0.96665 -2.166665 -1.7 -3.1 1.16665 0.466665 2.2 1.20415 3.1 2.2125 0.9 1.00835 1.53335 2.1625 1.9 3.4625 -0.3 0.53335 -0.55415 1.1125 -0.7625 1.7375 -0.20835 0.625 -0.34585 1.24585 -0.4125 1.8625Z"
        stroke-width="0.5"
    ></path>
</svg>
